<svg xmlns="http://www.w3.org/2000/svg" xmlns:xlink="http://www.w3.org/1999/xlink"><defs><style>
    .sprite-symbol-usage {display: none;}
    .sprite-symbol-usage:target {display: inline;}
  </style><symbol class="hide" id="arrow"></symbol><symbol viewBox="0 0 28 20.67" id="arrow_prev"><path fill="currentColor" class="cls-1" d="M9.65.24a.999.999 0 0 0-1.41.11l-8 9.33a1 1 0 0 0 0 1.3l8 9.33a.999.999 0 1 0 1.52-1.3l-6.59-7.68H27c.55 0 1-.45 1-1s-.45-1-1-1H3.17l6.59-7.68A.999.999 0 0 0 9.65.24Z" /></symbol><symbol fill="none" viewBox="0 0 30 30" id="cart"><path d="M9.291 29.167a2.807 2.807 0 0 1-2.059-.856 2.81 2.81 0 0 1-.857-2.061c0-.802.286-1.489.857-2.06a2.807 2.807 0 0 1 2.06-.857c.802 0 1.488.286 2.059.856a2.81 2.81 0 0 1 .857 2.061 2.81 2.81 0 0 1-.857 2.06c-.571.571-1.257.857-2.06.857Zm14.584 0a2.807 2.807 0 0 1-2.06-.856 2.81 2.81 0 0 1-.857-2.061c0-.802.286-1.489.858-2.06a2.807 2.807 0 0 1 2.059-.857c.802 0 1.489.286 2.06.856.571.572.857 1.259.857 2.061s-.286 1.489-.857 2.06a2.812 2.812 0 0 1-2.06.857ZM9.29 21.875c-1.093 0-1.92-.48-2.479-1.44-.559-.96-.583-1.914-.073-2.862L8.71 14 3.458 2.917H1.962c-.413 0-.753-.14-1.02-.42a1.442 1.442 0 0 1-.401-1.039c0-.413.14-.76.42-1.04A1.41 1.41 0 0 1 2 0h2.37c.267 0 .522.073.765.219.243.146.426.352.547.62l.984 2.078h21.51c.657 0 1.107.243 1.35.729.243.486.23.996-.037 1.531l-5.177 9.333c-.267.486-.62.863-1.057 1.13a2.808 2.808 0 0 1-1.495.402H10.896L9.29 18.958H25.37c.413 0 .753.14 1.02.419.268.28.401.627.401 1.04 0 .413-.14.759-.42 1.038-.278.28-.625.42-1.038.42H9.292Z" fill="currentColor" /></symbol><symbol fill="none" viewBox="0 0 30 28" id="favourite"><path d="m14.583 27.708-2.114-1.895c-2.455-2.212-4.485-4.12-6.089-5.724-1.604-1.605-2.88-3.045-3.828-4.321-.948-1.276-1.61-2.449-1.986-3.518A9.796 9.796 0 0 1 0 8.969c0-2.285.766-4.193 2.297-5.724C3.828 1.714 5.737.948 8.02.948c1.264 0 2.467.267 3.61.802a8.646 8.646 0 0 1 2.952 2.26 8.647 8.647 0 0 1 2.954-2.26 8.413 8.413 0 0 1 3.609-.802c2.285 0 4.192.766 5.724 2.297 1.531 1.531 2.297 3.439 2.297 5.724a9.82 9.82 0 0 1-.565 3.281c-.377 1.07-1.04 2.242-1.987 3.518-.948 1.276-2.224 2.716-3.828 4.32-1.605 1.605-3.634 3.513-6.09 5.724l-2.114 1.896Z" fill="currentColor" /></symbol><symbol viewBox="0 0 24.92 21.23" id="heart"><path fill="currentColor" class="cls-1" d="M12.46 5.82 9.52 2.88a4.696 4.696 0 0 0-6.65 0 4.696 4.696 0 0 0 0 6.65l9.59 9.59 9.59-9.59a4.696 4.696 0 0 0 0-6.65 4.696 4.696 0 0 0-6.65 0l-2.94 2.94Zm0 15.41L1.82 10.58a6.174 6.174 0 0 1 0-8.76 6.174 6.174 0 0 1 8.76 0l1.88 1.88 1.88-1.88a6.205 6.205 0 0 1 8.77 0 6.205 6.205 0 0 1 0 8.77L12.46 21.24Z" /></symbol><symbol fill="none" viewBox="0 0 35 35" id="home"><path d="M18.453.367a1.357 1.357 0 0 0-.437-.272 1.436 1.436 0 0 0-1.032 0 1.357 1.357 0 0 0-.437.272l-16.154 15a1.247 1.247 0 0 0-.291.405 1.172 1.172 0 0 0-.102.48V33.75c0 .332.142.65.394.884a1.4 1.4 0 0 0 .952.366h12.115c.358 0 .7-.132.952-.366.253-.234.395-.552.395-.884v-10h5.384v10c0 .332.142.65.395.884a1.4 1.4 0 0 0 .951.366h12.116c.357 0 .7-.132.952-.366.252-.234.394-.552.394-.884V16.251c0-.164-.034-.327-.102-.479a1.247 1.247 0 0 0-.291-.406l-3.645-3.382V3.752c0-.331-.142-.65-.395-.884a1.4 1.4 0 0 0-.952-.366h-2.692a1.4 1.4 0 0 0-.952.366 1.206 1.206 0 0 0-.394.884v3.232L18.453.367ZM2.693 32.5V16.77L17.5 3.019l14.808 13.75V32.5h-9.423v-10c0-.33-.142-.649-.395-.883a1.4 1.4 0 0 0-.951-.366H13.46a1.4 1.4 0 0 0-.951.366 1.206 1.206 0 0 0-.395.884v10H2.692Z" fill="#000" /></symbol><symbol fill="none" viewBox="0 0 94 104" id="note_1"><path d="M18.808 13.9A185.408 185.408 0 0 0 36.433 3.76c8.59-5.75 13.284-3.004 12.157.822-1.126 3.825 6.126 30.72 17.086 44.99 10.96 14.269 9.974-2.042 18.235-4.835s12.744 5.398 6.384 14.832c-6.36 9.435-20.677 6.595-22.554.798-1.878-5.797-15.349-31.237-19.315-37.386-3.966-6.149-7.04-5.867-14.081 1.338A27.037 27.037 0 0 1 9.96 32.3s14.692 28.256 19.198 37.292c4.506 9.035 8.261 20.629 14.95 20.394 6.688-.235 14.081-13.471 19.479-5.304s-10.538 21.709-19.034 17.837c-8.495-3.873-13.752-21.686-20.042-34.007C18.221 56.191-.084 23.78 1.042 19.227c1.127-4.553 9.599 0 17.766-5.327Z" fill="#fff" /></symbol><symbol fill="none" viewBox="0 0 42 75" id="note_2"><path d="M29.736 12.509s12.086 4.2 7.909 7.04c-4.178 2.84-17.696 38.607-14.903 43.254 2.793 4.647 11.735-10.702 16.757-5.586 5.022 5.117-2.347 17.696-10.232 16.757-7.886-.939-11.735-8.848-9.764-18.61 1.972-9.764 8.379-25.582 9.388-28.844 1.01-3.262-2.793-5.116-8.378-1.854-5.586 3.262-15.35-2.347-18.142-8.378C-.422 10.256 1.901 0 1.901 0S.049 5.116 9.342 7.44c9.294 2.323 17.133 3.684 20.395 5.069Z" fill="#fff" /></symbol><symbol fill="none" viewBox="0 0 20 20" id="search"><path d="M9 17A8 8 0 1 0 9 1a8 8 0 0 0 0 16ZM19 19l-4.35-4.35" stroke="#FF4948" stroke-width="2" stroke-linecap="round" stroke-linejoin="round" /></symbol><symbol fill="none" viewBox="0 0 30 30" id="user"><path d="M14.583 25.083a10.546 10.546 0 0 1-8.75-4.666c.044-2.917 5.834-4.521 8.75-4.521 2.917 0 8.707 1.604 8.75 4.52a10.546 10.546 0 0 1-8.75 4.667Zm0-20.708a4.375 4.375 0 1 1 0 8.75 4.375 4.375 0 0 1 0-8.75Zm0-4.375a14.583 14.583 0 1 0 14.584 14.583C29.167 6.52 22.604 0 14.583 0Z" fill="currentColor" /></symbol></defs><use id="arrow-usage" xlink:href="#arrow" class="sprite-symbol-usage" /><use id="arrow_prev-usage" xlink:href="#arrow_prev" class="sprite-symbol-usage" /><use id="cart-usage" xlink:href="#cart" class="sprite-symbol-usage" /><use id="favourite-usage" xlink:href="#favourite" class="sprite-symbol-usage" /><use id="heart-usage" xlink:href="#heart" class="sprite-symbol-usage" /><use id="home-usage" xlink:href="#home" class="sprite-symbol-usage" /><use id="note_1-usage" xlink:href="#note_1" class="sprite-symbol-usage" /><use id="note_2-usage" xlink:href="#note_2" class="sprite-symbol-usage" /><use id="search-usage" xlink:href="#search" class="sprite-symbol-usage" /><use id="user-usage" xlink:href="#user" class="sprite-symbol-usage" /></svg>